<?xml version="1.0" encoding="utf-8"?>
<!-- Generator: Adobe Illustrator 16.0.0, SVG Export Plug-In . SVG Version: 6.00 Build 0)  -->
<!DOCTYPE svg PUBLIC "-//W3C//DTD SVG 1.1//EN" "http://www.w3.org/Graphics/SVG/1.1/DTD/svg11.dtd">
<svg version="1.1" id="Layer_1" xmlns="http://www.w3.org/2000/svg" xmlns:xlink="http://www.w3.org/1999/xlink" x="0px" y="0px"
	 width="249px" height="250px" viewBox="0 0 249 250" enable-background="new 0 0 249 250" xml:space="preserve">
<g>
	<path fill="none" stroke="#ECF0F1" stroke-width="5" stroke-miterlimit="10" d="M18.498,86.813
		c-6.22-0.207-7.922,2.446-8.621,6.775c-0.978,6.062-2.786,11.99-3.804,18.046c-0.24,1.428,0.819,3.833,2.033,4.603
		c3.636,2.312,7.851,3.73,11.42,6.123c1.733,1.161,2.925,3.577,3.679,5.669c2.227,6.187-0.714,9.976-6.238,12.528
		c-2.093,0.967-4.466,2.107-5.734,3.87c-1.445,2.008-2.911,5.054-2.423,7.206c1.579,6.963,4.155,13.692,6.127,20.574
		c0.799,2.789,2.297,3.703,5.078,3.458c4.144-0.364,8.311-0.624,12.467-0.606c1.5,0.006,3.422,0.514,4.423,1.519
		c5.336,5.356,5.662,8.606,2.056,15.425c-1.245,2.354-2.429,4.744-3.746,7.056c-1.645,2.889-1.326,5.257,1.278,7.487
		c3.286,2.816,6.409,5.824,9.568,8.786c9.094,8.527,9.312,8.845,19.256,1.619c4.94-3.589,9.192-4.313,13.712-0.35
		c1.794,1.573,3.527,3.827,4.074,6.066c0.815,3.34,0.891,6.964,0.67,10.428c-0.286,4.469,1.706,6.207,5.863,6.916
		c5.574,0.951,11.047,2.486,16.59,3.643c8.366,1.743,6.799,2.396,10.778-5.291c1.148-2.217,2.37-4.408,3.338-6.705
		c1.262-2.996,3.448-3.688,6.564-4.229c5.988-1.04,9.855,0.655,12.366,6.214c1.151,2.55,3.156,4.699,4.548,7.157
		c1.403,2.477,3.152,2.976,5.813,2.105c6.964-2.275,13.963-4.458,21.011-6.455c3.446-0.977,4.311-2.911,3.848-6.295
		c-0.517-3.778-0.605-7.632-0.642-11.454c-0.052-5.552,8.645-11.144,13.651-8.776c3.761,1.778,7.473,3.688,11.075,5.766
		c2.488,1.436,4.214,1.021,6.034-1.115c2.914-3.42,6.009-6.691,9.1-9.956c8.81-9.31,9.014-9.428,1.843-19.794
		c-3.084-4.458-4.052-8.098-0.77-12.995c2.084-3.111,3.999-4.998,7.813-4.889c3.49,0.101,7.072,0.259,10.455-0.41
		c1.814-0.358,4.303-2.122,4.754-3.736c2.06-7.365,3.447-14.915,5.2-22.37c0.63-2.682,0.046-4.33-2.656-5.48
		c-3.669-1.563-7.276-3.35-10.684-5.414c-1.549-0.939-3.259-2.593-3.684-4.236c-1.76-6.797-0.321-9.964,5.463-13.721
		c2.374-1.542,4.701-3.165,7.136-4.605c2.663-1.575,3.546-3.359,2.383-6.565c-2.414-6.654-4.084-13.588-6.674-20.165
		c-0.7-1.778-3.483-3.53-5.52-3.818c-3.907-0.554-7.967-0.122-11.958,0.03c-5.39,0.206-10.941-7.497-8.901-12.514
		c1.558-3.833,3.094-7.682,4.868-11.414c1.656-3.481,1.33-6.197-1.745-8.822c-4.636-3.956-9.145-8.084-13.437-12.408
		c-2.688-2.708-4.957-3.297-8.115-0.765c-2.842,2.281-6.568,3.61-9.013,6.2c-4.397,4.661-7.529-0.843-11.256-1.029
		c-1.263-0.063-3.035-3.631-3.368-5.786c-0.71-4.579-0.619-9.283-0.889-13.934c-0.024-0.429-0.273-0.845-0.684-2.038
		c-0.365,1.481-0.548,2.217-0.39,1.578c-2.174-1.329-4.49-3.465-7.198-4.251c-6.039-1.75-12.247-2.988-18.453-4.043
		c-1.242-0.211-3.354,0.961-4.072,2.114c-2.017,3.233-3.496,6.798-5.222,10.215c-3.785,7.498-13.083,8.126-17.657,1.209
		c-1.468-2.222-2.898-4.473-4.455-6.632c-2.24-3.108-5.288-4.684-9.078-3.563c-6.539,1.934-13.063,3.958-19.441,6.349
		c-1.407,0.528-2.981,2.69-3.092,4.201c-0.315,4.296,0.212,8.646,0.139,12.971c-0.026,1.504-0.383,3.465-1.365,4.415
		c-6.615,6.397-10.134,6.507-17.625,0.999c-5.536-4.072-10.276-4.062-14.029,0.015c-4.24,4.606-8.401,9.289-12.77,13.77
		c-2.239,2.297-2.599,4.319-0.657,6.979c2.354,3.225,4.491,6.613,6.619,9.995c3.425,5.445-0.33,13.399-6.808,14.146
		c-4.911,0.566-9.872,0.702-14.81,1.029c-0.03,0.137-0.061,0.273-0.091,0.41C14.846,86.06,15.873,86.271,18.498,86.813z"/>
	<path fill-rule="evenodd" clip-rule="evenodd" fill="none" stroke="#ECF0F1" stroke-width="5" stroke-miterlimit="10" d="
		M18.498,86.813c-2.625-0.542-3.652-0.754-4.68-0.966c0.03-0.137,0.061-0.273,0.091-0.41c4.938-0.327,9.899-0.463,14.81-1.029
		c6.478-0.746,10.233-8.7,6.808-14.146c-2.128-3.382-4.265-6.771-6.619-9.995c-1.942-2.661-1.582-4.683,0.657-6.979
		c4.369-4.481,8.53-9.164,12.77-13.77c3.752-4.077,8.493-4.086,14.029-0.015c7.491,5.508,11.01,5.398,17.625-0.999
		c0.982-0.949,1.339-2.911,1.365-4.415c0.073-4.325-0.454-8.674-0.139-12.971c0.11-1.511,1.685-3.672,3.092-4.201
		c6.378-2.392,12.903-4.416,19.441-6.349c3.79-1.121,6.838,0.455,9.078,3.563c1.557,2.159,2.987,4.411,4.455,6.632
		c4.574,6.917,13.872,6.289,17.657-1.209c1.726-3.417,3.205-6.982,5.222-10.215c0.719-1.153,2.83-2.325,4.072-2.114
		c6.206,1.056,12.414,2.293,18.453,4.043c2.708,0.786,5.024,2.922,7.198,4.251c-0.158,0.639,0.024-0.097,0.39-1.578
		c0.41,1.193,0.659,1.609,0.684,2.038c0.27,4.651,0.179,9.354,0.889,13.934c0.333,2.154,2.105,5.722,3.368,5.786
		c3.727,0.186,6.858,5.689,11.256,1.029c2.444-2.59,6.171-3.919,9.013-6.2c3.158-2.533,5.427-1.944,8.115,0.765
		c4.292,4.324,8.801,8.452,13.437,12.408c3.075,2.625,3.401,5.341,1.745,8.822c-1.774,3.732-3.311,7.582-4.868,11.414
		c-2.04,5.017,3.512,12.72,8.901,12.514c3.991-0.152,8.051-0.584,11.958-0.03c2.036,0.288,4.819,2.04,5.52,3.818
		c2.59,6.577,4.26,13.51,6.674,20.165c1.163,3.207,0.28,4.991-2.383,6.565c-2.435,1.44-4.762,3.063-7.136,4.605
		c-5.784,3.757-7.223,6.924-5.463,13.721c0.425,1.644,2.135,3.297,3.684,4.236c3.407,2.064,7.015,3.851,10.684,5.414
		c2.702,1.15,3.286,2.799,2.656,5.48c-1.753,7.455-3.141,15.005-5.2,22.37c-0.451,1.614-2.939,3.378-4.754,3.736
		c-3.383,0.669-6.965,0.511-10.455,0.41c-3.814-0.109-5.729,1.777-7.813,4.889c-3.282,4.897-2.314,8.537,0.77,12.995
		c7.171,10.366,6.967,10.484-1.843,19.794c-3.091,3.265-6.186,6.536-9.1,9.956c-1.82,2.137-3.546,2.551-6.034,1.115
		c-3.603-2.078-7.314-3.987-11.075-5.766c-5.007-2.367-13.703,3.225-13.651,8.776c0.036,3.822,0.125,7.676,0.642,11.454
		c0.463,3.384-0.401,5.318-3.848,6.295c-7.048,1.997-14.047,4.18-21.011,6.455c-2.661,0.87-4.41,0.371-5.813-2.105
		c-1.392-2.458-3.396-4.607-4.548-7.157c-2.511-5.559-6.378-7.254-12.366-6.214c-3.116,0.541-5.303,1.233-6.564,4.229
		c-0.968,2.297-2.19,4.488-3.338,6.705c-3.979,7.687-2.412,7.034-10.778,5.291c-5.543-1.156-11.016-2.691-16.59-3.643
		c-4.157-0.709-6.148-2.447-5.863-6.916c0.221-3.464,0.146-7.088-0.67-10.428c-0.547-2.239-2.28-4.493-4.074-6.066
		c-4.52-3.964-8.772-3.239-13.712,0.35c-9.944,7.226-10.162,6.908-19.256-1.619c-3.159-2.962-6.282-5.97-9.568-8.786
		c-2.604-2.23-2.923-4.599-1.278-7.487c1.317-2.312,2.5-4.701,3.746-7.056c3.606-6.818,3.28-10.068-2.056-15.425
		c-1-1.005-2.923-1.513-4.423-1.519c-4.156-0.018-8.323,0.242-12.467,0.606c-2.78,0.245-4.278-0.669-5.078-3.458
		c-1.972-6.882-4.548-13.611-6.127-20.574c-0.488-2.152,0.978-5.198,2.423-7.206c1.269-1.763,3.642-2.903,5.734-3.87
		c5.523-2.553,8.465-6.342,6.238-12.528c-0.754-2.093-1.946-4.509-3.679-5.669c-3.569-2.393-7.784-3.811-11.42-6.123
		c-1.214-0.771-2.272-3.175-2.033-4.603c1.019-6.057,2.826-11.984,3.804-18.046C10.576,89.259,12.278,86.606,18.498,86.813z
		 M128.485,134.949c-0.364,3.486-0.677,5.215-0.7,6.946c-0.063,4.828,0.017,9.659-0.004,14.488
		c-0.023,5.605-0.914,6.347-6.457,5.497c-15.189-2.326-27.997-16.075-29.909-32.107c-1.894-15.885,7.482-32.154,21.896-37.991
		c22.952-9.294,46.95,4.278,50.561,28.775c0.524,3.556,1.814,4.956,5.369,4.786c4.321-0.206,8.658-0.057,12.987-0.075
		c6.915-0.028,7.427-0.629,6.444-7.495c-4.503-31.445-30.622-53.588-62.583-53.055c-31.669,0.527-58.464,26.71-59.368,58.013
		c-0.962,33.281,23.326,61.055,55.715,63.38c4.439,0.318,5.753,1.981,5.527,6.109c-0.246,4.503-0.056,9.027-0.056,13.544
		c0.577,0.159,1.154,0.318,1.732,0.479c13.757-11.639,27.515-23.275,41.864-35.414C156.974,158.708,143.304,147.308,128.485,134.949
		z"/>
	<path fill-rule="evenodd" clip-rule="evenodd" fill="none" stroke="#ECF0F1" stroke-width="5" stroke-miterlimit="10" d="
		M128.485,134.949c14.818,12.358,28.488,23.759,43.021,35.879c-14.35,12.139-28.107,23.775-41.864,35.414
		c-0.578-0.16-1.155-0.319-1.732-0.479c0-4.517-0.19-9.041,0.056-13.544c0.226-4.128-1.088-5.791-5.527-6.109
		c-32.389-2.325-56.677-30.099-55.715-63.38c0.904-31.303,27.699-57.486,59.368-58.013c31.961-0.533,58.08,21.61,62.583,53.055
		c0.982,6.866,0.471,7.467-6.444,7.495c-4.329,0.019-8.666-0.131-12.987,0.075c-3.555,0.17-4.845-1.229-5.369-4.786
		c-3.61-24.497-27.608-38.069-50.561-28.775c-14.414,5.837-23.791,22.106-21.896,37.991c1.912,16.032,14.719,29.781,29.909,32.107
		c5.542,0.85,6.433,0.108,6.457-5.497c0.021-4.829-0.06-9.66,0.004-14.488C127.809,140.164,128.121,138.436,128.485,134.949z"/>
</g>
</svg>
